<?xml version="1.0" encoding="UTF-8" standalone="no"?>
<!DOCTYPE svg PUBLIC "-//W3C//DTD SVG 1.0//EN"
 "http://www.w3.org/TR/2001/REC-SVG-20010904/DTD/svg10.dtd">
<!-- Generated by dot version 1.10 (Wed Jul 9 23:09:17 EDT 2003)
     For user: Bill Gates   Title: BDD    Pages: 1 -->
<svg width="186px" height="495px"
 viewBox = "-1 -1 139 371"
 xmlns="http://www.w3.org/2000/svg">
<g id="graph0" class="graph" transform = "scale(0.505618)"
 style="font-family:Times-Roman;font-size:14.00;">
<title>BDD</title>
<g id="node2" class="node"><title>37</title>
<ellipse cx="90" cy="38" rx="20" ry="16" style="fill:none;stroke:black;"/>
<text text-anchor="middle" x="90" y="44" style="font-family:Helvetica;font-size:16.00;">x1</text>
</g>
<g id="node4" class="node"><title>36</title>
<ellipse cx="51" cy="122" rx="22" ry="16" style="fill:none;stroke:black;"/>
<text text-anchor="middle" x="51" y="128" style="font-family:Helvetica;font-size:16.00;">x2</text>
</g>
<g id="edge13" class="edge"><title>37-&gt;36</title>
<path style="fill:none;stroke:black;" d="M83,54C77,66 69,84 62,98"/>
<polygon style="fill:black;stroke:black;" points="65,98 58,106 60,96 65,98"/>
<text text-anchor="middle" x="78" y="83" style="font-family:Helvetica;font-size:8.00;">1</text>
</g>
<g id="node6" class="node"><title>35</title>
<ellipse cx="106" cy="206" rx="22" ry="16" style="fill:none;stroke:black;"/>
<text text-anchor="middle" x="106" y="212" style="font-family:Helvetica;font-size:16.00;">x3</text>
</g>
<g id="edge11" class="edge"><title>37-&gt;35</title>
<path style="fill:none;stroke:black;stroke-dasharray:1,5;" d="M92,55C95,84 101,145 103,179"/>
<polygon style="fill:black;stroke:black;" points="105,179 104,189 101,179 105,179"/>
<text text-anchor="middle" x="104" y="125" style="font-family:Helvetica;font-size:8.00;">0</text>
</g>
<g id="edge15" class="edge"><title>36-&gt;35</title>
<path style="fill:none;stroke:black;stroke-dasharray:1,5;" d="M61,137C67,147 76,160 83,171 85,175 88,179 91,183"/>
<polygon style="fill:black;stroke:black;" points="93,181 96,191 89,184 93,181"/>
<text text-anchor="middle" x="89" y="167" style="font-family:Helvetica;font-size:8.00;">0</text>
</g>
<g id="node18" class="node"><title>1</title>
<polygon style="fill:none;stroke:black;" points="110,694 74,694 74,716 110,716 110,694"/>
<text text-anchor="middle" x="92" y="711" style="font-family:Helvetica;font-size:16.00;">1</text>
</g>
<g id="edge17" class="edge"><title>36-&gt;1</title>
<path style="fill:none;stroke:black;" d="M43,137C34,154 23,181 23,206 23,206 23,206 23,626 23,662 39,675 65,691"/>
<polygon style="fill:black;stroke:black;" points="67,689 74,697 64,694 67,689"/>
<text text-anchor="middle" x="28" y="419" style="font-family:Helvetica;font-size:8.00;">1</text>
</g>
<g id="node8" class="node"><title>34</title>
<ellipse cx="97" cy="290" rx="22" ry="16" style="fill:none;stroke:black;"/>
<text text-anchor="middle" x="97" y="296" style="font-family:Helvetica;font-size:16.00;">x4</text>
</g>
<g id="edge21" class="edge"><title>35-&gt;34</title>
<path style="fill:none;stroke:black;" d="M104,223C103,234 102,251 100,264"/>
<polygon style="fill:black;stroke:black;" points="103,263 99,273 98,263 103,263"/>
<text text-anchor="middle" x="106" y="251" style="font-family:Helvetica;font-size:8.00;">1</text>
</g>
<g id="node10" class="node"><title>33</title>
<ellipse cx="152" cy="374" rx="22" ry="16" style="fill:none;stroke:black;"/>
<text text-anchor="middle" x="152" y="380" style="font-family:Helvetica;font-size:16.00;">x5</text>
</g>
<g id="edge19" class="edge"><title>35-&gt;33</title>
<path style="fill:none;stroke:black;stroke-dasharray:1,5;" d="M112,222C121,245 136,287 145,325 146,333 148,341 149,348"/>
<polygon style="fill:black;stroke:black;" points="151,347 150,357 146,347 151,347"/>
<text text-anchor="middle" x="145" y="293" style="font-family:Helvetica;font-size:8.00;">0</text>
</g>
<g id="edge23" class="edge"><title>34-&gt;33</title>
<path style="fill:none;stroke:black;stroke-dasharray:1,5;" d="M107,305C113,315 121,328 129,339 131,343 134,347 137,351"/>
<polygon style="fill:black;stroke:black;" points="139,349 142,359 135,352 139,349"/>
<text text-anchor="middle" x="135" y="335" style="font-family:Helvetica;font-size:8.00;">0</text>
</g>
<g id="edge25" class="edge"><title>34-&gt;1</title>
<path style="fill:none;stroke:black;" d="M89,305C81,322 70,349 69,374 69,374 69,374 69,626 70,647 77,670 84,686"/>
<polygon style="fill:black;stroke:black;" points="85,683 87,693 81,685 85,683"/>
<text text-anchor="middle" x="74" y="503" style="font-family:Helvetica;font-size:8.00;">1</text>
</g>
<g id="node12" class="node"><title>32</title>
<ellipse cx="143" cy="458" rx="22" ry="16" style="fill:none;stroke:black;"/>
<text text-anchor="middle" x="143" y="464" style="font-family:Helvetica;font-size:16.00;">x6</text>
</g>
<g id="edge29" class="edge"><title>33-&gt;32</title>
<path style="fill:none;stroke:black;" d="M150,391C149,402 148,419 146,432"/>
<polygon style="fill:black;stroke:black;" points="149,431 145,441 144,431 149,431"/>
<text text-anchor="middle" x="152" y="419" style="font-family:Helvetica;font-size:8.00;">1</text>
</g>
<g id="node14" class="node"><title>31</title>
<ellipse cx="198" cy="542" rx="22" ry="16" style="fill:none;stroke:black;"/>
<text text-anchor="middle" x="198" y="548" style="font-family:Helvetica;font-size:16.00;">x7</text>
</g>
<g id="edge27" class="edge"><title>33-&gt;31</title>
<path style="fill:none;stroke:black;stroke-dasharray:1,5;" d="M158,390C167,413 182,455 191,493 192,501 194,509 195,516"/>
<polygon style="fill:black;stroke:black;" points="197,515 196,525 192,515 197,515"/>
<text text-anchor="middle" x="191" y="461" style="font-family:Helvetica;font-size:8.00;">0</text>
</g>
<g id="edge31" class="edge"><title>32-&gt;31</title>
<path style="fill:none;stroke:black;stroke-dasharray:1,5;" d="M153,473C159,483 167,496 175,507 177,511 180,515 183,519"/>
<polygon style="fill:black;stroke:black;" points="185,517 188,527 181,520 185,517"/>
<text text-anchor="middle" x="181" y="503" style="font-family:Helvetica;font-size:8.00;">0</text>
</g>
<g id="edge33" class="edge"><title>32-&gt;1</title>
<path style="fill:none;stroke:black;" d="M140,475C131,518 106,636 96,684"/>
<polygon style="fill:black;stroke:black;" points="99,684 94,693 94,683 99,684"/>
<text text-anchor="middle" x="122" y="587" style="font-family:Helvetica;font-size:8.00;">1</text>
</g>
<g id="node16" class="node"><title>30</title>
<ellipse cx="189" cy="626" rx="22" ry="16" style="fill:none;stroke:black;"/>
<text text-anchor="middle" x="189" y="632" style="font-family:Helvetica;font-size:16.00;">x8</text>
</g>
<g id="edge37" class="edge"><title>31-&gt;30</title>
<path style="fill:none;stroke:black;" d="M196,559C195,570 194,587 192,600"/>
<polygon style="fill:black;stroke:black;" points="195,599 191,609 190,599 195,599"/>
<text text-anchor="middle" x="198" y="587" style="font-family:Helvetica;font-size:8.00;">1</text>
</g>
<g id="node19" class="node"><title>0</title>
<polygon style="fill:none;stroke:black;" points="245,694 209,694 209,716 245,716 245,694"/>
<text text-anchor="middle" x="227" y="711" style="font-family:Helvetica;font-size:16.00;">0</text>
</g>
<g id="edge35" class="edge"><title>31-&gt;0</title>
<path style="fill:none;stroke:black;stroke-dasharray:1,5;" d="M204,558C209,571 216,591 220,609 224,632 224,638 226,661 227,669 227,677 227,684"/>
<polygon style="fill:black;stroke:black;" points="230,683 227,693 225,683 230,683"/>
<text text-anchor="middle" x="229" y="629" style="font-family:Helvetica;font-size:8.00;">0</text>
</g>
<g id="edge41" class="edge"><title>30-&gt;1</title>
<path style="fill:none;stroke:black;" d="M174,638C162,648 144,663 129,675 124,679 119,683 114,687"/>
<polygon style="fill:black;stroke:black;" points="116,688 107,693 113,685 116,688"/>
<text text-anchor="middle" x="152" y="671" style="font-family:Helvetica;font-size:8.00;">1</text>
</g>
<g id="edge39" class="edge"><title>30-&gt;0</title>
<path style="fill:none;stroke:black;stroke-dasharray:1,5;" d="M197,642C203,654 211,672 217,685"/>
<polygon style="fill:black;stroke:black;" points="219,683 221,693 214,685 219,683"/>
<text text-anchor="middle" x="216" y="671" style="font-family:Helvetica;font-size:8.00;">0</text>
</g>
</g></svg>
