<?xml version="1.0" encoding="UTF-8" standalone="no"?>
<!DOCTYPE svg PUBLIC "-//W3C//DTD SVG 1.0//EN"
 "http://www.w3.org/TR/2001/REC-SVG-20010904/DTD/svg10.dtd" [
 <!ATTLIST svg xmlns:xlink CDATA #FIXED "http://www.w3.org/1999/xlink">
]>
<!-- Generated by Graphviz version 2.20.2 (Tue Mar &#160;2 21:46:26 UTC 2010)
     For user: (dbeyer) Dirk Beyer,,, -->
<!-- Title: BDD Pages: 1 -->
<svg width="422pt" height="258pt"
 viewBox="0.00 0.00 422.00 258.00" xmlns="http://www.w3.org/2000/svg" xmlns:xlink="http://www.w3.org/1999/xlink">
<g id="graph0" class="graph" transform="scale(1 1) rotate(0) translate(4 254)">
<title>BDD</title>
<polygon style="fill:white;stroke:white;" points="-4,4 -4,-254 418,-254 418,4 -4,4"/>
<!-- 1 -->
<g id="node2" class="node"><title>1</title>
<ellipse style="fill:none;stroke:black;" cx="206" cy="-231" rx="22.838" ry="19.0919"/>
<text text-anchor="middle" x="206" y="-226.1" style="font-family:Arial;font-size:16.00;">x1</text>
</g>
<!-- 2 -->
<g id="node4" class="node"><title>2</title>
<ellipse style="fill:none;stroke:black;" cx="166" cy="-157" rx="22.838" ry="19.0919"/>
<text text-anchor="middle" x="166" y="-152.1" style="font-family:Arial;font-size:16.00;">x2</text>
</g>
<!-- 1&#45;&gt;2 -->
<g id="edge6" class="edge"><title>1&#45;&gt;2</title>
<path style="fill:none;stroke:black;stroke-dasharray:1,5;" d="M197,-213C193,-205 186,-194 181,-184"/>
<polygon style="fill:black;stroke:black;" points="183.916,-182.042 176,-175 177.797,-185.441 183.916,-182.042"/>
</g>
<!-- 3 -->
<g id="node5" class="node"><title>3</title>
<ellipse style="fill:none;stroke:black;" cx="247" cy="-157" rx="22.838" ry="19.0919"/>
<text text-anchor="middle" x="247" y="-152.1" style="font-family:Arial;font-size:16.00;">x2</text>
</g>
<!-- 1&#45;&gt;3 -->
<g id="edge8" class="edge"><title>1&#45;&gt;3</title>
<path style="fill:none;stroke:black;" d="M216,-213C221,-205 227,-194 232,-184"/>
<polygon style="fill:black;stroke:black;" points="235.203,-185.441 237,-175 229.084,-182.042 235.203,-185.441"/>
</g>
<!-- 4 -->
<g id="node7" class="node"><title>4</title>
<ellipse style="fill:none;stroke:black;" cx="72" cy="-83" rx="22.838" ry="19.0919"/>
<text text-anchor="middle" x="72" y="-78.1" style="font-family:Arial;font-size:16.00;">x3</text>
</g>
<!-- 2&#45;&gt;4 -->
<g id="edge10" class="edge"><title>2&#45;&gt;4</title>
<path style="fill:none;stroke:black;stroke-dasharray:1,5;" d="M149,-144C135,-132 114,-116 97,-103"/>
<polygon style="fill:black;stroke:black;" points="98.8306,-99.9511 89,-96 94.221,-105.219 98.8306,-99.9511"/>
</g>
<!-- 5 -->
<g id="node8" class="node"><title>5</title>
<ellipse style="fill:none;stroke:black;" cx="166" cy="-83" rx="22.838" ry="19.0919"/>
<text text-anchor="middle" x="166" y="-78.1" style="font-family:Arial;font-size:16.00;">x3</text>
</g>
<!-- 2&#45;&gt;5 -->
<g id="edge12" class="edge"><title>2&#45;&gt;5</title>
<path style="fill:none;stroke:black;" d="M166,-138C166,-130 166,-121 166,-112"/>
<polygon style="fill:black;stroke:black;" points="169.5,-112 166,-102 162.5,-112 169.5,-112"/>
</g>
<!-- 6 -->
<g id="node9" class="node"><title>6</title>
<ellipse style="fill:none;stroke:black;" cx="247" cy="-83" rx="22.838" ry="19.0919"/>
<text text-anchor="middle" x="247" y="-78.1" style="font-family:Arial;font-size:16.00;">x3</text>
</g>
<!-- 3&#45;&gt;6 -->
<g id="edge14" class="edge"><title>3&#45;&gt;6</title>
<path style="fill:none;stroke:black;stroke-dasharray:1,5;" d="M247,-138C247,-130 247,-121 247,-112"/>
<polygon style="fill:black;stroke:black;" points="250.5,-112 247,-102 243.5,-112 250.5,-112"/>
</g>
<!-- 7 -->
<g id="node10" class="node"><title>7</title>
<ellipse style="fill:none;stroke:black;" cx="342" cy="-83" rx="22.838" ry="19.0919"/>
<text text-anchor="middle" x="342" y="-78.1" style="font-family:Arial;font-size:16.00;">x3</text>
</g>
<!-- 3&#45;&gt;7 -->
<g id="edge16" class="edge"><title>3&#45;&gt;7</title>
<path style="fill:none;stroke:black;" d="M264,-144C278,-132 300,-115 317,-102"/>
<polygon style="fill:black;stroke:black;" points="319.1,-104.8 325,-96 314.9,-99.2 319.1,-104.8"/>
</g>
<!-- 8 -->
<g id="node12" class="node"><title>8</title>
<polygon style="fill:none;stroke:black;" points="36,-27.5 1.06581e-14,-27.5 3.55271e-15,-0.5 36,-0.5 36,-27.5"/>
<text text-anchor="middle" x="18" y="-9.1" style="font-family:Arial;font-size:16.00;">1</text>
</g>
<!-- 4&#45;&gt;8 -->
<g id="edge18" class="edge"><title>4&#45;&gt;8</title>
<path style="fill:none;stroke:black;stroke-dasharray:1,5;" d="M59,-67C52,-58 43,-46 35,-36"/>
<polygon style="fill:black;stroke:black;" points="37.8,-33.9 29,-28 32.2,-38.1 37.8,-33.9"/>
</g>
<!-- 9 -->
<g id="node13" class="node"><title>9</title>
<polygon style="fill:none;stroke:black;" points="90,-27.5 54,-27.5 54,-0.5 90,-0.5 90,-27.5"/>
<text text-anchor="middle" x="72" y="-9.1" style="font-family:Arial;font-size:16.00;">0</text>
</g>
<!-- 4&#45;&gt;9 -->
<g id="edge20" class="edge"><title>4&#45;&gt;9</title>
<path style="fill:none;stroke:black;" d="M72,-64C72,-56 72,-46 72,-38"/>
<polygon style="fill:black;stroke:black;" points="75.5001,-38 72,-28 68.5001,-38 75.5001,-38"/>
</g>
<!-- 10 -->
<g id="node14" class="node"><title>10</title>
<polygon style="fill:none;stroke:black;" points="144,-27.5 108,-27.5 108,-0.5 144,-0.5 144,-27.5"/>
<text text-anchor="middle" x="126" y="-9.1" style="font-family:Arial;font-size:16.00;">0</text>
</g>
<!-- 5&#45;&gt;10 -->
<g id="edge22" class="edge"><title>5&#45;&gt;10</title>
<path style="fill:none;stroke:black;stroke-dasharray:1,5;" d="M156,-66C151,-57 144,-46 139,-37"/>
<polygon style="fill:black;stroke:black;" points="141.916,-35.0418 134,-28 135.797,-38.4414 141.916,-35.0418"/>
</g>
<!-- 11 -->
<g id="node15" class="node"><title>11</title>
<polygon style="fill:none;stroke:black;" points="198,-27.5 162,-27.5 162,-0.5 198,-0.5 198,-27.5"/>
<text text-anchor="middle" x="180" y="-9.1" style="font-family:Arial;font-size:16.00;">1</text>
</g>
<!-- 5&#45;&gt;11 -->
<g id="edge24" class="edge"><title>5&#45;&gt;11</title>
<path style="fill:none;stroke:black;" d="M170,-64C171,-56 173,-47 175,-38"/>
<polygon style="fill:black;stroke:black;" points="178.471,-38.4922 177,-28 171.607,-37.1194 178.471,-38.4922"/>
</g>
<!-- 12 -->
<g id="node16" class="node"><title>12</title>
<polygon style="fill:none;stroke:black;" points="252,-27.5 216,-27.5 216,-0.5 252,-0.5 252,-27.5"/>
<text text-anchor="middle" x="234" y="-9.1" style="font-family:Arial;font-size:16.00;">0</text>
</g>
<!-- 6&#45;&gt;12 -->
<g id="edge26" class="edge"><title>6&#45;&gt;12</title>
<path style="fill:none;stroke:black;stroke-dasharray:1,5;" d="M243,-64C242,-56 240,-47 239,-38"/>
<polygon style="fill:black;stroke:black;" points="242.393,-37.1194 237,-28 235.529,-38.4922 242.393,-37.1194"/>
</g>
<!-- 13 -->
<g id="node17" class="node"><title>13</title>
<polygon style="fill:none;stroke:black;" points="306,-27.5 270,-27.5 270,-0.5 306,-0.5 306,-27.5"/>
<text text-anchor="middle" x="288" y="-9.1" style="font-family:Arial;font-size:16.00;">0</text>
</g>
<!-- 6&#45;&gt;13 -->
<g id="edge28" class="edge"><title>6&#45;&gt;13</title>
<path style="fill:none;stroke:black;" d="M257,-66C262,-57 269,-46 275,-37"/>
<polygon style="fill:black;stroke:black;" points="278.203,-38.4414 280,-28 272.084,-35.0418 278.203,-38.4414"/>
</g>
<!-- 14 -->
<g id="node18" class="node"><title>14</title>
<polygon style="fill:none;stroke:black;" points="360,-27.5 324,-27.5 324,-0.5 360,-0.5 360,-27.5"/>
<text text-anchor="middle" x="342" y="-9.1" style="font-family:Arial;font-size:16.00;">1</text>
</g>
<!-- 7&#45;&gt;14 -->
<g id="edge30" class="edge"><title>7&#45;&gt;14</title>
<path style="fill:none;stroke:black;stroke-dasharray:1,5;" d="M342,-64C342,-56 342,-46 342,-38"/>
<polygon style="fill:black;stroke:black;" points="345.5,-38 342,-28 338.5,-38 345.5,-38"/>
</g>
<!-- 15 -->
<g id="node19" class="node"><title>15</title>
<polygon style="fill:none;stroke:black;" points="414,-27.5 378,-27.5 378,-0.5 414,-0.5 414,-27.5"/>
<text text-anchor="middle" x="396" y="-9.1" style="font-family:Arial;font-size:16.00;">1</text>
</g>
<!-- 7&#45;&gt;15 -->
<g id="edge32" class="edge"><title>7&#45;&gt;15</title>
<path style="fill:none;stroke:black;" d="M355,-67C362,-58 371,-46 379,-36"/>
<polygon style="fill:black;stroke:black;" points="381.8,-38.1 385,-28 376.2,-33.9 381.8,-38.1"/>
</g>
</g>
</svg>
