<?xml version="1.0" encoding="UTF-8" standalone="no"?>
<!-- Generated by Graphviz version 2.20.2 (Tue Mar &#160;2 21:46:26 UTC 2010)
     For user: (dbeyer) Dirk Beyer,,, -->

<!-- Title: BDD Pages: 1 -->

<svg
   xmlns:dc="http://purl.org/dc/elements/1.1/"
   xmlns:cc="http://creativecommons.org/ns#"
   xmlns:rdf="http://www.w3.org/1999/02/22-rdf-syntax-ns#"
   xmlns:svg="http://www.w3.org/2000/svg"
   xmlns="http://www.w3.org/2000/svg"
   xmlns:sodipodi="http://sodipodi.sourceforge.net/DTD/sodipodi-0.dtd"
   xmlns:inkscape="http://www.inkscape.org/namespaces/inkscape"
   width="422pt"
   height="258pt"
   viewBox="0.00 0.00 422.00 258.00"
   id="svg2"
   version="1.1"
   inkscape:version="0.47 r22583"
   sodipodi:docname="BDTwithTable.svg">
  <metadata
     id="metadata216">
    <rdf:RDF>
      <cc:Work
         rdf:about="">
        <dc:format>image/svg+xml</dc:format>
        <dc:type
           rdf:resource="http://purl.org/dc/dcmitype/StillImage" />
        <dc:title />
      </cc:Work>
    </rdf:RDF>
  </metadata>
  <defs
     id="defs214">
    <inkscape:perspective
       sodipodi:type="inkscape:persp3d"
       inkscape:vp_x="0 : 161.25 : 1"
       inkscape:vp_y="0 : 1000 : 0"
       inkscape:vp_z="527.5 : 161.25 : 1"
       inkscape:persp3d-origin="263.75 : 107.5 : 1"
       id="perspective218" />
  </defs>
  <sodipodi:namedview
     pagecolor="#ffffff"
     bordercolor="#666666"
     borderopacity="1"
     objecttolerance="10"
     gridtolerance="10"
     guidetolerance="10"
     inkscape:pageopacity="0"
     inkscape:pageshadow="2"
     inkscape:window-width="1063"
     inkscape:window-height="973"
     id="namedview212"
     showgrid="false"
     inkscape:zoom="1.3504346"
     inkscape:cx="263.75"
     inkscape:cy="161.25"
     inkscape:window-x="0"
     inkscape:window-y="0"
     inkscape:window-maximized="0"
     inkscape:current-layer="svg2" />
  <g
     class="node"
     id="node2"
     transform="matrix(0.85855179,0,0,0.85855179,3.3634831,255.22893)">
    <title
       id="title10">Binary Decision Tree</title>
    <ellipse
       sodipodi:ry="19.0919"
       sodipodi:rx="22.837999"
       sodipodi:cy="-231"
       sodipodi:cx="206"
       d="m 228.838,-231 c 0,10.54417 -10.22492,19.0919 -22.838,19.0919 -12.61308,0 -22.838,-8.54773 -22.838,-19.0919 0,-10.54417 10.22492,-19.0919 22.838,-19.0919 12.61308,0 22.838,8.54773 22.838,19.0919 z"
       id="ellipse12"
       ry="19.0919"
       rx="22.837999"
       cy="-231"
       cx="206"
       style="fill:none;stroke:#000000" />
    <text
       id="text14"
       style="font-size:16px;text-anchor:middle;font-family:Arial"
       y="-226.10001"
       x="206">x1</text>
  </g>
  <g
     class="node"
     id="node4"
     transform="matrix(0.85855179,0,0,0.85855179,3.3634831,255.22893)">
    <title
       id="title17">2</title>
    <ellipse
       sodipodi:ry="19.0919"
       sodipodi:rx="22.837999"
       sodipodi:cy="-157"
       sodipodi:cx="166"
       d="m 188.838,-157 c 0,10.54417 -10.22492,19.0919 -22.838,19.0919 -12.61308,0 -22.838,-8.54773 -22.838,-19.0919 0,-10.54417 10.22492,-19.0919 22.838,-19.0919 12.61308,0 22.838,8.54773 22.838,19.0919 z"
       id="ellipse19"
       ry="19.0919"
       rx="22.837999"
       cy="-157"
       cx="166"
       style="fill:none;stroke:#000000" />
    <text
       id="text21"
       style="font-size:16px;text-anchor:middle;font-family:Arial"
       y="-152.10001"
       x="166">x2</text>
  </g>
  <g
     class="edge"
     id="edge6"
     transform="matrix(0.85855179,0,0,0.85855179,3.3634831,255.22893)">
    <title
       id="title24">1-&gt;2</title>
    <path
       id="path26"
       d="m 197,-213 c -4,8 -11,19 -16,29"
       style="fill:none;stroke:#000000;stroke-dasharray:1, 5" />
    <polygon
       id="polygon28"
       points="176,-175 177.797,-185.441 183.916,-182.042 183.916,-182.042 "
       style="fill:#000000;stroke:#000000" />
  </g>
  <g
     class="node"
     id="node5"
     transform="matrix(0.85855179,0,0,0.85855179,3.3634831,255.22893)">
    <title
       id="title31">3</title>
    <ellipse
       sodipodi:ry="19.0919"
       sodipodi:rx="22.837999"
       sodipodi:cy="-157"
       sodipodi:cx="247"
       d="m 269.838,-157 c 0,10.54417 -10.22492,19.0919 -22.838,19.0919 -12.61308,0 -22.838,-8.54773 -22.838,-19.0919 0,-10.54417 10.22492,-19.0919 22.838,-19.0919 12.61308,0 22.838,8.54773 22.838,19.0919 z"
       id="ellipse33"
       ry="19.0919"
       rx="22.837999"
       cy="-157"
       cx="247"
       style="fill:none;stroke:#000000" />
    <text
       id="text35"
       style="font-size:16px;text-anchor:middle;font-family:Arial"
       y="-152.10001"
       x="247">x2</text>
  </g>
  <g
     class="edge"
     id="edge8"
     transform="matrix(0.85855179,0,0,0.85855179,3.3634831,255.22893)">
    <title
       id="title38">1-&gt;3</title>
    <path
       id="path40"
       d="m 216,-213 c 5,8 11,19 16,29"
       style="fill:none;stroke:#000000" />
    <polygon
       id="polygon42"
       points="237,-175 229.084,-182.042 235.203,-185.441 235.203,-185.441 "
       style="fill:#000000;stroke:#000000" />
  </g>
  <g
     class="node"
     id="node7"
     transform="matrix(0.85855179,0,0,0.85855179,3.3634831,255.22893)">
    <title
       id="title45">4</title>
    <ellipse
       sodipodi:ry="19.0919"
       sodipodi:rx="22.837999"
       sodipodi:cy="-83"
       sodipodi:cx="72"
       d="m 94.837999,-83 c 0,10.544165 -10.22492,19.0919 -22.837999,19.0919 -12.613079,0 -22.837999,-8.547735 -22.837999,-19.0919 0,-10.544165 10.22492,-19.0919 22.837999,-19.0919 12.613079,0 22.837999,8.547735 22.837999,19.0919 z"
       id="ellipse47"
       ry="19.0919"
       rx="22.837999"
       cy="-83"
       cx="72"
       style="fill:none;stroke:#000000" />
    <text
       id="text49"
       style="font-size:16px;text-anchor:middle;font-family:Arial"
       y="-78.099998"
       x="72">x3</text>
  </g>
  <g
     class="edge"
     id="edge10"
     transform="matrix(0.85855179,0,0,0.85855179,3.3634831,255.22893)">
    <title
       id="title52">2-&gt;4</title>
    <path
       id="path54"
       d="m 149,-144 c -14,12 -35,28 -52,41"
       style="fill:none;stroke:#000000;stroke-dasharray:1, 5" />
    <polygon
       id="polygon56"
       points="89,-96 94.221,-105.219 98.8306,-99.9511 98.8306,-99.9511 "
       style="fill:#000000;stroke:#000000" />
  </g>
  <g
     class="node"
     id="node8"
     transform="matrix(0.85855179,0,0,0.85855179,3.3634831,255.22893)">
    <title
       id="title59">5</title>
    <ellipse
       sodipodi:ry="19.0919"
       sodipodi:rx="22.837999"
       sodipodi:cy="-83"
       sodipodi:cx="166"
       d="m 188.838,-83 c 0,10.544165 -10.22492,19.0919 -22.838,19.0919 -12.61308,0 -22.838,-8.547735 -22.838,-19.0919 0,-10.544165 10.22492,-19.0919 22.838,-19.0919 12.61308,0 22.838,8.547735 22.838,19.0919 z"
       id="ellipse61"
       ry="19.0919"
       rx="22.837999"
       cy="-83"
       cx="166"
       style="fill:none;stroke:#000000" />
    <text
       id="text63"
       style="font-size:16px;text-anchor:middle;font-family:Arial"
       y="-78.099998"
       x="166">x3</text>
  </g>
  <g
     class="edge"
     id="edge12"
     transform="matrix(0.85855179,0,0,0.85855179,3.3634831,255.22893)">
    <title
       id="title66">2-&gt;5</title>
    <path
       id="path68"
       d="m 166,-138 c 0,8 0,17 0,26"
       style="fill:none;stroke:#000000" />
    <polygon
       id="polygon70"
       points="166,-102 162.5,-112 169.5,-112 169.5,-112 "
       style="fill:#000000;stroke:#000000" />
  </g>
  <g
     class="node"
     id="node9"
     transform="matrix(0.85855179,0,0,0.85855179,3.3634831,255.22893)">
    <title
       id="title73">6</title>
    <ellipse
       sodipodi:ry="19.0919"
       sodipodi:rx="22.837999"
       sodipodi:cy="-83"
       sodipodi:cx="247"
       d="m 269.838,-83 c 0,10.544165 -10.22492,19.0919 -22.838,19.0919 -12.61308,0 -22.838,-8.547735 -22.838,-19.0919 0,-10.544165 10.22492,-19.0919 22.838,-19.0919 12.61308,0 22.838,8.547735 22.838,19.0919 z"
       id="ellipse75"
       ry="19.0919"
       rx="22.837999"
       cy="-83"
       cx="247"
       style="fill:none;stroke:#000000" />
    <text
       id="text77"
       style="font-size:16px;text-anchor:middle;font-family:Arial"
       y="-78.099998"
       x="247">x3</text>
  </g>
  <g
     class="edge"
     id="edge14"
     transform="matrix(0.85855179,0,0,0.85855179,3.3634831,255.22893)">
    <title
       id="title80">3-&gt;6</title>
    <path
       id="path82"
       d="m 247,-138 c 0,8 0,17 0,26"
       style="fill:none;stroke:#000000;stroke-dasharray:1, 5" />
    <polygon
       id="polygon84"
       points="247,-102 243.5,-112 250.5,-112 250.5,-112 "
       style="fill:#000000;stroke:#000000" />
  </g>
  <g
     class="node"
     id="node10"
     transform="matrix(0.85855179,0,0,0.85855179,3.3634831,255.22893)">
    <title
       id="title87">7</title>
    <ellipse
       sodipodi:ry="19.0919"
       sodipodi:rx="22.837999"
       sodipodi:cy="-83"
       sodipodi:cx="342"
       d="m 364.838,-83 c 0,10.544165 -10.22492,19.0919 -22.838,19.0919 -12.61308,0 -22.838,-8.547735 -22.838,-19.0919 0,-10.544165 10.22492,-19.0919 22.838,-19.0919 12.61308,0 22.838,8.547735 22.838,19.0919 z"
       id="ellipse89"
       ry="19.0919"
       rx="22.837999"
       cy="-83"
       cx="342"
       style="fill:none;stroke:#000000" />
    <text
       id="text91"
       style="font-size:16px;text-anchor:middle;font-family:Arial"
       y="-78.099998"
       x="342">x3</text>
  </g>
  <g
     class="edge"
     id="edge16"
     transform="matrix(0.85855179,0,0,0.85855179,3.3634831,255.22893)">
    <title
       id="title94">3-&gt;7</title>
    <path
       id="path96"
       d="m 264,-144 c 14,12 36,29 53,42"
       style="fill:none;stroke:#000000" />
    <polygon
       id="polygon98"
       points="325,-96 314.9,-99.2 319.1,-104.8 319.1,-104.8 "
       style="fill:#000000;stroke:#000000" />
  </g>
  <g
     class="node"
     id="node12"
     transform="matrix(0.85855179,0,0,0.85855179,3.3634831,255.22893)">
    <title
       id="title101">8</title>
    <polygon
       id="polygon103"
       points="36,-27.5 36,-27.5 1.06581e-14,-27.5 3.55271e-15,-0.5 36,-0.5 "
       style="fill:none;stroke:#000000" />
    <text
       id="text105"
       style="font-size:16px;text-anchor:middle;font-family:Arial"
       y="-9.1000004"
       x="18">1</text>
  </g>
  <g
     class="edge"
     id="edge18"
     transform="matrix(0.85855179,0,0,0.85855179,3.3634831,255.22893)">
    <title
       id="title108">4-&gt;8</title>
    <path
       id="path110"
       d="m 59,-67 c -7,9 -16,21 -24,31"
       style="fill:none;stroke:#000000;stroke-dasharray:1, 5" />
    <polygon
       id="polygon112"
       points="29,-28 32.2,-38.1 37.8,-33.9 37.8,-33.9 "
       style="fill:#000000;stroke:#000000" />
  </g>
  <g
     class="node"
     id="node13"
     transform="matrix(0.85855179,0,0,0.85855179,3.3634831,255.22893)">
    <title
       id="title115">9</title>
    <polygon
       id="polygon117"
       points="90,-27.5 90,-27.5 54,-27.5 54,-0.5 90,-0.5 "
       style="fill:none;stroke:#000000" />
    <text
       id="text119"
       style="font-size:16px;text-anchor:middle;font-family:Arial"
       y="-9.1000004"
       x="72">0</text>
  </g>
  <g
     class="edge"
     id="edge20"
     transform="matrix(0.85855179,0,0,0.85855179,3.3634831,255.22893)">
    <title
       id="title122">4-&gt;9</title>
    <path
       id="path124"
       d="m 72,-64 c 0,8 0,18 0,26"
       style="fill:none;stroke:#000000" />
    <polygon
       id="polygon126"
       points="72,-28 68.5001,-38 75.5001,-38 75.5001,-38 "
       style="fill:#000000;stroke:#000000" />
  </g>
  <g
     class="node"
     id="node14"
     transform="matrix(0.85855179,0,0,0.85855179,3.3634831,255.22893)">
    <title
       id="title129">10</title>
    <polygon
       id="polygon131"
       points="144,-27.5 144,-27.5 108,-27.5 108,-0.5 144,-0.5 "
       style="fill:none;stroke:#000000" />
    <text
       id="text133"
       style="font-size:16px;text-anchor:middle;font-family:Arial"
       y="-9.1000004"
       x="126">0</text>
  </g>
  <g
     class="edge"
     id="edge22"
     transform="matrix(0.85855179,0,0,0.85855179,3.3634831,255.22893)">
    <title
       id="title136">5-&gt;10</title>
    <path
       id="path138"
       d="m 156,-66 c -5,9 -12,20 -17,29"
       style="fill:none;stroke:#000000;stroke-dasharray:1, 5" />
    <polygon
       id="polygon140"
       points="134,-28 135.797,-38.4414 141.916,-35.0418 141.916,-35.0418 "
       style="fill:#000000;stroke:#000000" />
  </g>
  <g
     class="node"
     id="node15"
     transform="matrix(0.85855179,0,0,0.85855179,3.3634831,255.22893)">
    <title
       id="title143">11</title>
    <polygon
       id="polygon145"
       points="198,-27.5 198,-27.5 162,-27.5 162,-0.5 198,-0.5 "
       style="fill:none;stroke:#000000" />
    <text
       id="text147"
       style="font-size:16px;text-anchor:middle;font-family:Arial"
       y="-9.1000004"
       x="180">1</text>
  </g>
  <g
     class="edge"
     id="edge24"
     transform="matrix(0.85855179,0,0,0.85855179,3.3634831,255.22893)">
    <title
       id="title150">5-&gt;11</title>
    <path
       id="path152"
       d="m 170,-64 c 1,8 3,17 5,26"
       style="fill:none;stroke:#000000" />
    <polygon
       id="polygon154"
       points="177,-28 171.607,-37.1194 178.471,-38.4922 178.471,-38.4922 "
       style="fill:#000000;stroke:#000000" />
  </g>
  <g
     class="node"
     id="node16"
     transform="matrix(0.85855179,0,0,0.85855179,3.3634831,255.22893)">
    <title
       id="title157">12</title>
    <polygon
       id="polygon159"
       points="252,-27.5 252,-27.5 216,-27.5 216,-0.5 252,-0.5 "
       style="fill:none;stroke:#000000" />
    <text
       id="text161"
       style="font-size:16px;text-anchor:middle;font-family:Arial"
       y="-9.1000004"
       x="234">0</text>
  </g>
  <g
     class="edge"
     id="edge26"
     transform="matrix(0.85855179,0,0,0.85855179,3.3634831,255.22893)">
    <title
       id="title164">6-&gt;12</title>
    <path
       id="path166"
       d="m 243,-64 c -1,8 -3,17 -4,26"
       style="fill:none;stroke:#000000;stroke-dasharray:1, 5" />
    <polygon
       id="polygon168"
       points="237,-28 235.529,-38.4922 242.393,-37.1194 242.393,-37.1194 "
       style="fill:#000000;stroke:#000000" />
  </g>
  <g
     class="node"
     id="node17"
     transform="matrix(0.85855179,0,0,0.85855179,3.3634831,255.22893)">
    <title
       id="title171">13</title>
    <polygon
       id="polygon173"
       points="306,-27.5 306,-27.5 270,-27.5 270,-0.5 306,-0.5 "
       style="fill:none;stroke:#000000" />
    <text
       id="text175"
       style="font-size:16px;text-anchor:middle;font-family:Arial"
       y="-9.1000004"
       x="288">0</text>
  </g>
  <g
     class="edge"
     id="edge28"
     transform="matrix(0.85855179,0,0,0.85855179,3.3634831,255.22893)">
    <title
       id="title178">6-&gt;13</title>
    <path
       id="path180"
       d="m 257,-66 c 5,9 12,20 18,29"
       style="fill:none;stroke:#000000" />
    <polygon
       id="polygon182"
       points="280,-28 272.084,-35.0418 278.203,-38.4414 278.203,-38.4414 "
       style="fill:#000000;stroke:#000000" />
  </g>
  <g
     class="node"
     id="node18"
     transform="matrix(0.85855179,0,0,0.85855179,3.3634831,255.22893)">
    <title
       id="title185">14</title>
    <polygon
       id="polygon187"
       points="360,-27.5 360,-27.5 324,-27.5 324,-0.5 360,-0.5 "
       style="fill:none;stroke:#000000" />
    <text
       id="text189"
       style="font-size:16px;text-anchor:middle;font-family:Arial"
       y="-9.1000004"
       x="342">1</text>
  </g>
  <g
     class="edge"
     id="edge30"
     transform="matrix(0.85855179,0,0,0.85855179,3.3634831,255.22893)">
    <title
       id="title192">7-&gt;14</title>
    <path
       id="path194"
       d="m 342,-64 c 0,8 0,18 0,26"
       style="fill:none;stroke:#000000;stroke-dasharray:1, 5" />
    <polygon
       id="polygon196"
       points="342,-28 338.5,-38 345.5,-38 345.5,-38 "
       style="fill:#000000;stroke:#000000" />
  </g>
  <g
     class="node"
     id="node19"
     transform="matrix(0.85855179,0,0,0.85855179,3.3634831,255.22893)">
    <title
       id="title199">15</title>
    <polygon
       id="polygon201"
       points="414,-27.5 414,-27.5 378,-27.5 378,-0.5 414,-0.5 "
       style="fill:none;stroke:#000000" />
    <text
       id="text203"
       style="font-size:16px;text-anchor:middle;font-family:Arial"
       y="-9.1000004"
       x="396">1</text>
  </g>
  <g
     class="edge"
     id="edge32"
     transform="matrix(0.85855179,0,0,0.85855179,3.3634831,255.22893)">
    <title
       id="title206">7-&gt;15</title>
    <path
       id="path208"
       d="m 355,-67 c 7,9 16,21 24,31"
       style="fill:none;stroke:#000000" />
    <polygon
       id="polygon210"
       points="385,-28 376.2,-33.9 381.8,-38.1 381.8,-38.1 "
       style="fill:#000000;stroke:#000000" />
  </g>
  <text
     xml:space="preserve"
     style="font-size:9.60000038px;font-style:normal;font-weight:normal;fill:#000000;fill-opacity:1;stroke:none;font-family:Bitstream Vera Sans"
     x="328.19064"
     y="49.474533"
     id="text3024"><tspan
       sodipodi:role="line"
       id="tspan3026"
       x="328.19064"
       y="49.474533"
       style="font-size:12.80000019px">x1  x2  x3    f</tspan><tspan
       sodipodi:role="line"
       x="328.19064"
       y="65.474533"
       id="tspan3028"
       style="font-size:12.80000019px"> 0    0    0    1</tspan><tspan
       sodipodi:role="line"
       x="328.19064"
       y="81.474533"
       id="tspan3032"
       style="font-size:12.80000019px"> 0    0    1    0</tspan><tspan
       sodipodi:role="line"
       x="328.19064"
       y="97.474533"
       id="tspan3034"
       style="font-size:12.80000019px"> 0    1    0    0</tspan><tspan
       sodipodi:role="line"
       x="328.19064"
       y="113.47453"
       id="tspan3030"
       style="font-size:12.80000019px"> 0    1    1    1</tspan><tspan
       sodipodi:role="line"
       x="328.19064"
       y="129.47453"
       id="tspan3036"
       style="font-size:12.80000019px"> 1    0    0    0</tspan><tspan
       sodipodi:role="line"
       x="328.19064"
       y="145.47453"
       id="tspan3038"
       style="font-size:12.80000019px"> 1    0    1    0</tspan><tspan
       sodipodi:role="line"
       x="328.19064"
       y="161.47453"
       id="tspan3040"
       style="font-size:12.80000019px"> 1    1    0    1</tspan><tspan
       sodipodi:role="line"
       x="328.19064"
       y="177.47453"
       id="tspan3042"
       style="font-size:12.80000019px"> 1    1    1    1</tspan></text>
  <path
     style="fill:none;stroke:#000000;stroke-width:0.74086863px;stroke-linecap:butt;stroke-linejoin:miter;stroke-opacity:1"
     d="m 326.97629,52.436541 c 88.32701,0 88.32701,0 88.32701,0"
     id="path3065" />
  <path
     style="fill:none;stroke:#000000;stroke-width:0.77412575px;stroke-linecap:butt;stroke-linejoin:miter;stroke-opacity:1"
     d="m 397.50167,39.390761 c 0,141.017529 0,141.017529 0,141.017529"
     id="path3067" />
</svg>
